<svg width="43" height="40" viewBox="0 0 43 40" fill="none" xmlns="http://www.w3.org/2000/svg">
<path d="M30.4801 0H11.6172C5.21149 0 0 4.95203 0 11.0386V28.9614C0 35.0482 5.21149 40 11.6172 40H30.4801C36.8863 40 42.0978 35.048 42.0978 28.9614V11.0386C42.098 4.95203 36.8863 0 30.4801 0ZM38.3629 28.9614C38.3629 33.0913 34.8267 36.451 30.4803 36.451H11.6172C7.27103 36.4512 3.73512 33.0913 3.73512 28.9614V11.0386C3.73512 6.90894 7.27103 3.54899 11.6172 3.54899H30.4801C34.8265 3.54899 38.3627 6.90894 38.3627 11.0386V28.9614H38.3629Z" fill="black"/>
<path d="M21.0488 9.69409C15.0674 9.69409 10.2012 14.3176 10.2012 20.0008C10.2012 25.6838 15.0674 30.3071 21.0488 30.3071C27.0303 30.3071 31.8964 25.6838 31.8964 20.0008C31.8964 14.3176 27.0303 9.69409 21.0488 9.69409ZM21.0488 26.758C17.1272 26.758 13.9364 23.7267 13.9364 20.0006C13.9364 16.2742 17.1269 13.2428 21.0488 13.2428C24.9707 13.2428 28.1613 16.2742 28.1613 20.0006C28.1613 23.7267 24.9705 26.758 21.0488 26.758Z" fill="black"/>
<path d="M32.351 6.68481C31.6314 6.68481 30.9245 6.96163 30.4162 7.44666C29.9055 7.92932 29.6119 8.60125 29.6119 9.28738C29.6119 9.97139 29.9058 10.6431 30.4162 11.1281C30.9242 11.6108 31.6314 11.89 32.351 11.89C33.0731 11.89 33.7778 11.6108 34.2883 11.1281C34.7988 10.6431 35.0901 9.97115 35.0901 9.28738C35.0901 8.60125 34.7988 7.92932 34.2883 7.44666C33.7803 6.96163 33.0731 6.68481 32.351 6.68481Z" fill="black"/>
</svg>
