<svg width="33" height="34" viewBox="0 0 33 34" fill="none" xmlns="http://www.w3.org/2000/svg">
<g clip-path="url(#clip0)">
<path d="M15.9569 0.966064H17.402C21.9954 1.2783 25.3697 3.10038 27.8457 5.59102C30.3169 8.07681 32.177 11.4099 32.4765 16.0304V17.4509C31.9237 23.6601 29.1042 27.606 24.923 30.1694C22.7674 31.4912 20.2736 32.3676 17.1724 32.5149C14.2536 32.654 11.8476 31.8997 9.88176 30.9622C9.62603 30.8404 9.22073 30.5775 9.02773 30.5662C8.77401 30.5508 8.27181 30.7822 7.91114 30.8962C5.38951 31.6993 2.87163 32.5141 0.357568 33.3408C0.318968 33.346 0.298864 33.3335 0.291626 33.3076C1.26588 30.5326 2.16494 27.6816 3.14884 24.9163C1.87705 22.6926 0.882691 20.1405 0.882691 16.8559C0.882691 13.5313 1.80749 10.8676 3.0829 8.7292C5.64418 4.4363 9.74183 1.47608 15.9569 0.966064ZM15.1358 29.9049C17.6279 30.1892 20.0404 29.7193 21.8687 28.9468C25.4597 27.4296 28.1199 24.4698 29.3563 20.6218C30.0604 18.4325 30.1099 15.8274 29.5863 13.6514C28.5864 9.49483 25.9804 6.52046 22.5583 4.86421C20.7469 3.98776 18.6621 3.35276 16.0558 3.47693C10.7551 3.72891 6.99157 6.81369 4.95541 10.5464C3.87541 12.5262 3.17056 15.1111 3.44438 17.9464C3.70734 20.6675 4.66511 22.6728 5.90715 24.5531C5.35669 26.169 4.8191 27.7973 4.26543 29.4095C5.99199 28.8998 7.6731 28.3445 9.35583 27.7908C10.9859 28.8412 12.829 29.6416 15.1358 29.9049Z" fill="black"/>
<path d="M11.228 9.55509C11.4158 9.53041 12.2131 9.49725 12.509 9.62101C12.8303 9.75529 12.9497 10.1961 13.0675 10.4801C13.3607 11.1867 13.5786 11.7185 13.8886 12.4619C14.0181 12.7725 14.2826 13.2033 14.2826 13.4532C14.2826 13.8731 13.9236 14.2953 13.6916 14.5764C13.4459 14.8741 12.9839 15.1576 12.969 15.5346C12.9574 15.8318 13.2569 16.2003 13.429 16.4596C14.5106 18.0907 15.8938 19.3445 17.7969 20.2259C18.051 20.3431 18.5242 20.6129 18.7824 20.5891C19.1985 20.5502 19.5053 19.9605 19.8001 19.5981C19.973 19.3862 20.4285 18.6448 20.7526 18.5741C21.0397 18.5114 21.5113 18.7516 21.8362 18.9041C22.5362 19.2325 23.098 19.5096 23.8064 19.8623C24.0823 19.9994 24.6098 20.1947 24.6934 20.424C24.87 20.909 24.5221 22.0665 24.3649 22.3727C24.0043 23.0757 23.0783 23.6573 22.2958 23.9254C21.9199 24.0544 21.3638 24.196 20.7522 24.1568C20.0104 24.1094 19.2359 23.8138 18.519 23.5618C16.2408 22.7622 14.8994 22.0071 13.1657 20.4236C12.1468 19.493 11.4017 18.4345 10.604 17.3182C9.87097 16.2921 8.99322 14.8846 8.96185 13.3206C8.94255 12.3636 9.14199 11.7485 9.48738 11.1074C9.82594 10.4789 10.3993 9.66267 11.228 9.55509Z" fill="black"/>
</g>
<defs>
<clipPath id="clip0">
<rect x="0.291626" y="0.966064" width="32.1668" height="32.3565" fill="white"/>
</clipPath>
</defs>
</svg>
